<svg width="345" height="210" viewBox="0 0 345 210" fill="none" xmlns="http://www.w3.org/2000/svg">
<g filter="url(#filter0_d_14_2)">
<path d="M139.918 34.992C140.558 35.376 141.454 36.272 140.814 37.04L138.766 39.984C133.902 46.64 129.166 53.296 124.558 60.08C118.414 69.04 112.398 78.128 106.894 87.472L105.102 90.672C104.078 92.464 103.95 92.592 103.95 92.72C103.694 93.104 104.078 92.464 103.822 92.848L103.438 93.488C102.158 95.792 101.006 98.224 99.982 100.656C99.47 101.936 98.958 103.344 98.574 104.752L98.318 106.416C98.318 106.544 98.318 106.8 98.318 106.8V107.312C98.318 107.44 98.318 108.208 98.574 108.464C99.214 108.848 99.982 109.488 99.726 110.256C99.47 111.28 97.934 111.28 97.166 111.024C92.302 109.744 94.094 103.344 95.374 100.016C97.294 95.28 99.854 90.672 102.542 86.32C105.23 81.712 108.046 77.104 110.99 72.624C116.622 63.92 122.51 55.344 128.398 46.896C129.806 44.976 131.854 42.032 132.622 40.752C132.622 40.752 132.494 40.88 131.854 41.392C130.19 42.8 128.526 44.208 126.734 45.744L122.126 49.712C119.182 52.528 116.11 55.216 113.294 58.032C107.918 63.152 102.67 68.4 97.806 73.904C93.07 79.28 88.59 84.784 84.11 90.288L77.71 97.712C75.406 100.528 73.23 103.344 70.286 105.648C69.134 106.416 67.086 105.52 66.574 104.496C65.934 103.216 65.934 101.68 66.19 100.4C66.574 98.736 67.086 97.072 67.726 95.408C71.054 87.216 76.174 79.792 80.782 72.368L84.238 66.352L87.054 61.232C87.694 60.336 88.206 59.312 88.718 58.416C88.846 58.032 88.974 57.776 89.23 57.52C89.23 57.392 89.358 57.264 89.358 57.264C89.358 57.136 89.486 57.008 89.486 57.008L90.254 55.6C92.302 51.76 94.35 48.048 96.142 44.08C96.398 43.568 96.654 43.056 96.91 42.544C92.174 45.872 88.206 50.352 84.366 54.704C79.374 60.464 74.126 65.968 69.262 71.856C64.014 78.128 59.022 84.4 54.286 90.928C49.422 97.456 44.814 103.984 40.334 110.768C38.286 113.84 36.238 117.168 34.318 120.368C33.806 121.648 33.422 122.928 32.91 124.208C31.886 126.896 30.862 129.712 29.07 131.888C28.558 132.528 27.406 132.528 26.638 132.272C26.126 132.144 24.846 131.504 24.974 130.608C25.102 128.176 26.126 126.128 27.278 123.952C28.046 122.288 28.942 120.752 29.838 119.216C30.35 118.064 30.734 117.04 31.246 116.016C33.038 112.56 34.702 109.104 36.494 105.776C40.206 98.864 44.174 92.08 48.27 85.424C52.11 78.768 56.078 72.112 59.79 65.328C61.71 62 63.502 58.544 65.166 55.088C66.83 51.76 68.238 48.304 69.774 44.976C71.822 40.88 77.71 27.824 74.638 23.984C72.59 22.192 63.374 27.824 59.918 30.384C57.87 32.048 55.95 33.584 54.03 35.504C51.726 37.808 49.422 40.112 47.374 42.672C42.382 48.56 37.902 55.216 34.446 62.128C31.374 68.144 28.686 74.544 27.406 81.072C27.022 84.016 25.614 88.88 28.046 91.312C28.686 91.952 28.302 92.976 27.406 93.232C26.382 93.488 25.358 92.976 24.59 92.336C22.67 90.416 22.542 87.216 22.67 84.784C22.926 78.768 24.846 72.88 27.15 67.376C30.222 60.08 34.318 53.04 38.926 46.64C42.894 41.264 47.246 36.144 52.11 31.664C55.694 28.592 59.406 25.648 63.63 23.472C66.19 22.192 69.134 20.912 72.078 20.784C74.254 20.528 76.558 21.168 78.094 22.832C79.246 24.112 79.63 26.032 79.63 27.824C79.63 32.176 78.094 36.656 76.43 40.752C75.79 42.544 75.022 44.208 74.382 45.872L70.158 55.088C65.294 64.944 59.79 74.416 54.158 83.888C58.638 77.872 63.374 72.112 68.238 66.352C70.926 63.28 73.486 60.336 76.302 57.392C78.606 54.96 80.782 52.4 82.958 49.84C87.566 44.848 92.43 39.856 98.574 37.04C99.726 36.528 101.39 36.784 102.03 37.808C102.798 38.704 102.542 39.728 102.286 40.752C101.902 42.032 101.39 43.184 100.878 44.464C99.214 48.304 97.166 52.016 95.246 55.728C93.07 59.568 91.022 63.408 88.718 67.248C87.566 69.296 86.414 71.472 85.134 73.52C75.918 89.392 73.87 92.08 72.59 95.536C72.078 96.688 71.694 97.712 71.31 98.864C72.462 97.328 73.614 95.792 74.894 94.384C77.326 91.696 79.63 88.88 82.062 85.936C86.542 80.56 91.022 75.056 95.758 69.808C100.75 64.176 106.254 58.928 111.758 53.68C117.902 47.792 124.942 41.264 132.494 35.888C134.67 34.352 137.358 33.712 139.918 34.992ZM89.358 57.264C89.358 57.264 89.358 57.264 89.358 57.136C89.358 57.136 89.358 57.136 89.358 57.264ZM163.454 74.16C164.094 74.416 165.118 75.44 164.478 75.952C160.254 79.664 156.414 83.12 151.678 86.192C149.502 87.6 148.478 88.368 146.814 89.264C141.694 92.08 139.902 92.848 137.982 93.232C134.91 93.616 130.942 93.232 129.278 90.416C128.254 88.88 128.51 86.832 129.022 85.04C127.87 86.448 126.59 87.6 125.182 88.88C123.902 90.032 122.75 91.568 121.47 92.464C120.446 93.36 119.294 94 117.886 94.512C116.35 95.152 114.558 95.152 112.894 94C111.742 93.104 111.23 91.568 111.23 90.16C111.358 86.96 113.278 84.4 115.07 81.968C117.118 79.408 119.422 77.104 122.11 75.184C124.03 73.776 126.206 72.752 128.894 71.856C129.79 71.6 131.07 71.344 132.094 71.472C133.246 71.856 134.91 72.752 134.27 74.16C133.886 75.056 132.862 75.056 132.094 74.672C131.582 74.288 130.686 74.544 130.302 74.672C128.254 75.568 126.334 76.72 124.542 78C123.006 79.28 121.086 80.944 119.55 82.864C118.014 84.656 116.35 86.576 115.582 89.008C115.198 90.032 114.942 91.184 115.326 92.208C115.454 92.208 115.582 92.208 115.71 92.08C118.398 90.672 120.702 88.624 123.006 85.936L130.43 78L134.398 74.416L134.526 74.288C135.422 73.136 136.574 72.112 137.342 70.96C138.238 69.936 141.182 70.832 141.182 72.24V72.368C141.182 73.648 137.214 77.488 136.062 79.152C135.678 79.792 135.166 80.432 134.91 81.072C134.142 82.608 133.374 84.272 132.99 85.68C131.71 89.264 133.63 91.312 136.702 90.416C139.262 89.648 141.438 88.368 144.126 86.96C150.398 83.632 155.518 78.896 160.894 74.16C161.79 73.648 162.814 73.776 163.454 74.16ZM170.106 74.288C169.594 75.056 168.314 74.672 167.802 74.032C165.242 75.312 162.81 77.616 160.506 80.048C158.97 81.712 157.562 83.376 156.282 85.168C154.874 87.216 153.21 89.008 153.082 91.824C153.082 92.208 152.826 93.232 156.922 91.952C159.226 91.184 159.738 90.8 160.122 90.672L163.066 89.392L164.602 88.624C167.034 87.216 169.338 85.936 171.642 84.4L178.298 79.792C178.298 79.792 178.81 79.408 178.938 79.28L182.522 76.464C184.186 74.928 184.57 74.928 185.722 73.776C186.234 73.52 187.002 73.52 187.514 73.776C189.178 75.056 188.794 75.696 187.386 77.232L185.594 78.896L184.058 80.048C182.906 80.816 181.882 81.712 180.73 82.48L177.658 84.784C172.41 88.368 166.394 92.08 159.61 94.384C157.434 95.152 154.618 95.536 152.314 94.768C150.522 94.128 148.602 92.848 148.73 90.672C148.858 89.136 150.01 87.088 150.778 85.68C153.082 82.096 156.026 79.024 158.97 76.08C161.146 73.904 165.242 69.936 168.826 71.088C169.594 71.344 170.49 71.856 170.618 72.752C170.746 73.264 170.49 73.776 170.106 74.288ZM224.829 74.16C225.469 74.416 226.493 75.44 225.853 75.952C221.629 79.664 217.789 83.12 213.053 86.192C210.877 87.6 209.853 88.368 208.189 89.264C203.069 92.08 201.277 92.848 199.357 93.232C196.285 93.616 192.317 93.232 190.653 90.416C189.629 88.88 189.885 86.832 190.397 85.04C189.245 86.448 187.965 87.6 186.557 88.88C185.277 90.032 184.125 91.568 182.845 92.464C181.821 93.36 180.669 94 179.261 94.512C177.725 95.152 175.933 95.152 174.269 94C173.117 93.104 172.605 91.568 172.605 90.16C172.733 86.96 174.653 84.4 176.445 81.968C178.493 79.408 180.797 77.104 183.485 75.184C185.405 73.776 187.581 72.752 190.269 71.856C191.165 71.6 192.445 71.344 193.469 71.472C194.621 71.856 196.285 72.752 195.645 74.16C195.261 75.056 194.237 75.056 193.469 74.672C192.957 74.288 192.061 74.544 191.677 74.672C189.629 75.568 187.709 76.72 185.917 78C184.381 79.28 182.461 80.944 180.925 82.864C179.389 84.656 177.725 86.576 176.957 89.008C176.573 90.032 176.317 91.184 176.701 92.208C176.829 92.208 176.957 92.208 177.085 92.08C179.773 90.672 182.077 88.624 184.381 85.936L191.805 78L195.773 74.416L195.901 74.288C196.797 73.136 197.949 72.112 198.717 70.96C199.613 69.936 202.557 70.832 202.557 72.24V72.368C202.557 73.648 198.589 77.488 197.437 79.152C197.053 79.792 196.541 80.432 196.285 81.072C195.517 82.608 194.749 84.272 194.365 85.68C193.085 89.264 195.005 91.312 198.077 90.416C200.637 89.648 202.813 88.368 205.501 86.96C211.773 83.632 216.893 78.896 222.269 74.16C223.165 73.648 224.189 73.776 224.829 74.16ZM261.689 73.392C262.201 73.776 262.841 74.672 262.201 75.184C259.513 77.616 255.929 79.792 252.985 81.968C249.913 84.144 246.841 86.064 243.513 88.112C238.905 90.928 234.297 93.616 229.305 95.664C225.977 96.944 221.625 98.352 218.297 96.56C216.889 95.792 215.865 94.512 215.737 92.848C215.609 90.928 216.377 88.88 217.017 87.088C218.937 81.456 221.753 76.208 224.697 70.96C226.617 67.248 228.665 63.664 230.841 60.08H228.409C220.985 60.08 213.689 60.08 206.393 60.208C199.353 60.208 192.313 60.336 185.273 60.336C180.025 60.336 174.777 60.464 169.401 60.464H165.433H164.921C163.385 60.592 161.209 60.72 160.697 58.8C160.569 58.416 160.953 58.032 161.209 57.776C161.465 57.52 161.977 57.52 162.361 57.52C162.233 57.52 162.233 57.52 162.105 57.52C162.233 57.52 162.233 57.52 162.233 57.52H162.617C166.713 57.392 170.809 57.392 175.033 57.392C177.081 57.392 179.257 57.392 205.753 57.136H227.641C229.305 57.136 230.969 57.136 232.633 57.008C233.017 56.24 233.529 55.472 234.041 54.576C234.297 53.936 234.681 53.296 235.065 52.656L235.833 51.248C236.601 49.84 237.497 48.432 238.393 47.024L241.465 42.416L243.257 40.112L244.153 39.088C244.537 38.576 244.921 38.448 245.689 38.32C246.457 38.32 247.225 38.576 247.609 39.088C247.993 39.472 247.993 39.984 247.737 40.496C245.433 43.312 243.641 46.512 241.721 49.456C241.337 50.224 240.697 50.992 240.313 51.632L239.545 53.168C238.905 54.448 238.265 55.6 237.497 56.752C237.497 56.88 237.369 57.008 237.369 57.008C240.057 57.008 242.873 57.136 245.689 57.136C249.017 57.136 252.473 57.008 255.801 57.392C256.569 57.52 257.593 58.032 257.977 58.8C258.233 59.44 257.849 60.208 257.081 60.336C254.905 60.72 252.857 61.488 250.553 61.872C249.529 62 248.377 61.744 247.737 60.976C247.481 60.72 247.353 60.464 247.353 60.08C247.097 60.08 246.841 60.08 246.585 60.08H235.577C233.273 64.304 230.713 68.656 228.409 72.88C225.721 78.128 222.905 83.376 220.985 89.008C220.601 90.16 220.217 91.312 220.089 92.72C220.089 92.848 220.089 92.848 220.089 92.848C220.089 95.152 222.265 94.256 223.673 93.872C225.465 93.36 227.257 92.72 229.305 91.696C239.673 86.704 249.785 80.048 258.745 73.008C259.513 72.368 261.049 72.88 261.689 73.392ZM288.613 72.112C289.765 71.344 292.837 72.88 291.301 74.16C288.997 76.08 286.181 77.36 283.365 78.512C280.549 79.664 277.605 80.688 274.533 81.328C273.381 81.456 271.717 81.84 270.181 81.968C269.541 82.864 268.901 83.76 268.133 84.656C266.853 86.32 265.573 87.856 264.165 89.392C262.501 91.184 260.581 92.976 258.277 93.872C256.101 94.768 253.541 95.28 251.365 94C250.341 93.36 249.573 92.464 249.317 91.184C249.061 90.16 249.189 89.008 249.445 87.984C250.213 84.656 252.005 81.584 253.925 78.896C256.101 76.08 258.661 73.52 261.733 71.728C262.501 71.344 263.653 71.6 264.293 72.112C265.317 72.88 264.805 74.288 263.653 74.288C261.477 76.08 259.557 78.128 257.765 80.432C255.973 82.736 254.309 85.424 253.541 88.368C253.157 90.8 253.029 92.592 255.845 91.184C257.893 90.16 259.301 88.752 260.965 87.088C262.373 85.424 263.909 83.76 265.189 81.968C265.573 81.456 265.957 81.072 266.213 80.688C266.085 80.56 265.957 80.432 265.829 80.304C265.061 79.408 264.805 78.256 264.805 77.104C264.805 76.336 264.805 75.312 265.189 74.544C265.573 73.392 266.469 72.24 267.493 71.6C269.157 70.704 271.205 71.216 272.229 72.752C273.509 74.544 272.997 76.592 272.229 78.512V78.64H272.485C275.557 78 278.501 76.976 281.445 75.824L285.285 74.032C286.437 73.392 287.589 72.88 288.613 72.112ZM200.743 169.632C205.223 169.248 221.095 167.968 222.375 172.064C222.631 173.088 221.863 173.6 221.095 173.728C220.071 173.728 218.919 173.472 218.279 172.704C218.407 172.704 218.407 172.704 218.407 172.704C218.407 172.704 218.407 172.704 218.279 172.704C218.279 172.576 218.279 172.576 218.279 172.576C218.279 172.576 218.151 172.576 218.023 172.576C218.151 172.576 218.151 172.576 218.023 172.576H217.895C215.591 172.32 209.447 171.936 201.383 172.704C185.255 174.24 169.895 178.848 154.663 184.608L151.975 185.632L150.055 186.4C148.391 187.168 146.727 187.936 145.063 188.448C143.399 189.088 141.607 189.6 139.815 189.728C138.919 189.856 138.023 189.856 136.999 189.728C135.719 189.472 134.823 188.832 134.311 187.552C133.159 183.456 135.591 178.592 137.895 174.752C143.911 163.744 150.567 153.248 157.991 143.136L158.119 142.88C157.095 143.008 155.943 143.136 154.919 143.264C151.463 143.648 151.207 143.648 150.567 143.648C150.439 143.904 149.927 143.904 149.799 144.032C149.415 144.16 148.775 143.904 148.391 143.648C148.135 143.264 148.007 142.752 147.879 142.368C147.367 141.472 148.391 140.832 149.159 140.832C152.359 140.448 155.431 140.064 158.631 139.808C159.271 139.808 159.911 139.68 160.551 139.68L169.511 127.52C171.687 124.704 173.863 121.888 175.911 118.944C177.063 117.408 178.215 115.872 179.239 114.336L181.031 111.904C181.415 111.52 181.671 111.008 181.927 110.624L182.055 110.496C182.055 110.368 182.183 110.24 182.183 110.24C182.695 108.448 186.535 109.728 186.023 111.392C185.767 112.416 184.871 113.44 184.231 114.208C178.215 122.656 171.943 130.976 165.927 139.296C170.919 138.912 176.039 138.656 181.159 138.528C184.743 138.4 188.455 138.272 192.167 138.4H197.415L202.791 138.656C203.815 138.784 205.991 140.192 204.455 141.344L203.303 142.24C202.535 142.752 201.383 142.496 200.743 141.984C200.487 141.856 200.487 141.472 198.823 141.472C197.159 141.472 195.495 141.344 193.831 141.344C186.279 141.344 178.855 141.472 171.431 141.984C168.743 142.112 166.183 142.24 163.495 142.496C162.343 144.032 161.191 145.696 160.039 147.232C156.327 152.48 152.743 157.728 149.415 163.232C146.599 168.096 140.967 176.416 139.431 181.536C139.047 182.816 138.535 183.968 138.407 185.376V185.504V185.632V186.016V186.656C143.655 185.376 148.519 183.072 154.535 180.768C161.703 178.208 168.871 175.776 176.295 173.984C184.359 171.936 192.551 170.4 200.743 169.632ZM237.479 102.688C237.863 103.456 237.351 104.096 236.711 104.224C234.023 104.992 231.335 105.504 228.647 105.76C227.623 105.76 226.343 105.376 225.959 104.352C225.831 104.096 225.831 103.84 225.831 103.584C224.679 103.584 223.527 103.584 222.119 103.584C206.375 103.456 191.143 105.632 175.271 106.144C171.559 106.272 169.383 106.272 167.719 106.016C166.695 105.888 165.031 105.504 164.647 104.352C164.391 103.84 164.519 103.456 165.031 103.072L165.543 102.688C166.311 102.048 167.719 102.432 168.615 103.072H170.023C191.015 103.072 211.879 98.848 235.303 101.28C236.199 101.408 237.095 101.92 237.479 102.688ZM218.279 172.704C218.279 172.832 218.407 172.832 218.279 172.704V172.704ZM218.023 172.576C218.151 172.576 218.151 172.576 218.279 172.576C218.279 172.704 218.279 172.704 218.279 172.704C218.151 172.576 218.151 172.576 218.023 172.576ZM218.279 172.704C218.279 172.576 218.279 172.576 218.279 172.576C218.279 172.576 218.279 172.576 218.279 172.704ZM257.204 144.16C257.844 144.416 258.868 145.44 258.228 145.952C254.004 149.664 250.164 153.12 245.428 156.192C243.252 157.6 242.228 158.368 240.564 159.264C235.444 162.08 233.652 162.848 231.732 163.232C228.66 163.616 224.692 163.232 223.028 160.416C222.004 158.88 222.26 156.832 222.772 155.04C221.62 156.448 220.34 157.6 218.932 158.88C217.652 160.032 216.5 161.568 215.22 162.464C214.196 163.36 213.044 164 211.636 164.512C210.1 165.152 208.308 165.152 206.644 164C205.492 163.104 204.98 161.568 204.98 160.16C205.108 156.96 207.028 154.4 208.82 151.968C210.868 149.408 213.172 147.104 215.86 145.184C217.78 143.776 219.956 142.752 222.644 141.856C223.54 141.6 224.82 141.344 225.844 141.472C226.996 141.856 228.66 142.752 228.02 144.16C227.636 145.056 226.612 145.056 225.844 144.672C225.332 144.288 224.436 144.544 224.052 144.672C222.004 145.568 220.084 146.72 218.292 148C216.756 149.28 214.836 150.944 213.3 152.864C211.764 154.656 210.1 156.576 209.332 159.008C208.948 160.032 208.692 161.184 209.076 162.208C209.204 162.208 209.332 162.208 209.46 162.08C212.148 160.672 214.452 158.624 216.756 155.936L224.18 148L228.148 144.416L228.276 144.288C229.172 143.136 230.324 142.112 231.092 140.96C231.988 139.936 234.932 140.832 234.932 142.24V142.368C234.932 143.648 230.964 147.488 229.812 149.152C229.428 149.792 228.916 150.432 228.66 151.072C227.892 152.608 227.124 154.272 226.74 155.68C225.46 159.264 227.38 161.312 230.452 160.416C233.012 159.648 235.188 158.368 237.876 156.96C244.148 153.632 249.268 148.896 254.644 144.16C255.54 143.648 256.564 143.776 257.204 144.16ZM294.064 143.392C294.576 143.776 295.216 144.672 294.576 145.184C291.888 147.616 288.304 149.792 285.36 151.968C282.288 154.144 279.216 156.064 275.888 158.112C271.28 160.928 266.672 163.616 261.68 165.664C258.352 166.944 254 168.352 250.672 166.56C249.264 165.792 248.24 164.512 248.112 162.848C247.984 160.928 248.752 158.88 249.392 157.088C251.312 151.456 254.128 146.208 257.072 140.96C258.992 137.248 261.04 133.664 263.216 130.08H260.784C253.36 130.08 246.064 130.08 238.768 130.208C231.728 130.208 224.688 130.336 217.648 130.336C212.4 130.336 207.152 130.464 201.776 130.464H197.808H197.296C195.76 130.592 193.584 130.72 193.072 128.8C192.944 128.416 193.328 128.032 193.584 127.776C193.84 127.52 194.352 127.52 194.736 127.52C194.608 127.52 194.608 127.52 194.48 127.52C194.608 127.52 194.608 127.52 194.608 127.52H194.992C199.088 127.392 203.184 127.392 207.408 127.392C209.456 127.392 211.632 127.392 238.128 127.136H260.016C261.68 127.136 263.344 127.136 265.008 127.008C265.392 126.24 265.904 125.472 266.416 124.576C266.672 123.936 267.056 123.296 267.44 122.656L268.208 121.248C268.976 119.84 269.872 118.432 270.768 117.024L273.84 112.416L275.632 110.112L276.528 109.088C276.912 108.576 277.296 108.448 278.064 108.32C278.832 108.32 279.6 108.576 279.984 109.088C280.368 109.472 280.368 109.984 280.112 110.496C277.808 113.312 276.016 116.512 274.096 119.456C273.712 120.224 273.072 120.992 272.688 121.632L271.92 123.168C271.28 124.448 270.64 125.6 269.872 126.752C269.872 126.88 269.744 127.008 269.744 127.008C272.432 127.008 275.248 127.136 278.064 127.136C281.392 127.136 284.848 127.008 288.176 127.392C288.944 127.52 289.968 128.032 290.352 128.8C290.608 129.44 290.224 130.208 289.456 130.336C287.28 130.72 285.232 131.488 282.928 131.872C281.904 132 280.752 131.744 280.112 130.976C279.856 130.72 279.728 130.464 279.728 130.08C279.472 130.08 279.216 130.08 278.96 130.08H267.952C265.648 134.304 263.088 138.656 260.784 142.88C258.096 148.128 255.28 153.376 253.36 159.008C252.976 160.16 252.592 161.312 252.464 162.72C252.464 162.848 252.464 162.848 252.464 162.848C252.464 165.152 254.64 164.256 256.048 163.872C257.84 163.36 259.632 162.72 261.68 161.696C272.048 156.704 282.16 150.048 291.12 143.008C291.888 142.368 293.424 142.88 294.064 143.392ZM323.676 144.16C324.188 144.544 324.316 145.056 323.932 145.696C323.164 146.72 322.268 147.36 321.116 148.384C320.22 149.152 319.324 150.048 318.3 150.816C316.252 152.352 315.356 153.248 313.18 154.784C310.108 156.96 306.908 159.008 303.452 160.928C298.844 163.36 295.9 164.768 290.78 165.536C289.756 165.664 288.604 165.792 287.58 165.792C287.452 166.176 287.324 166.56 287.196 166.944C286.684 169.12 284.636 169.12 282.716 168.352C281.82 167.84 281.052 167.072 280.412 166.304C276.316 161.952 274.012 160.544 273.244 158.368C272.86 157.984 273.116 157.216 273.884 156.96C275.804 156.448 276.444 157.6 277.596 158.752C279.26 160.416 281.18 162.08 283.996 162.72C285.276 157.856 286.3 153.248 288.348 148.64C290.396 144.16 293.596 139.936 298.46 138.272C299.612 138.016 301.148 138.528 301.66 139.552C302.3 140.704 300.38 141.216 297.82 142.752C297.436 143.008 295.004 145.056 293.212 148.64L292.828 149.408L292.06 151.072L290.78 154.656C289.756 157.344 288.988 160.544 288.348 162.848C290.652 162.848 293.084 161.952 295.516 161.184C297.82 160.416 298.332 160.16 298.844 159.904C301.532 158.496 302.3 157.984 304.604 156.576C307.292 154.912 309.468 153.248 312.028 151.328L316.252 148C317.788 146.848 319.452 145.056 321.116 143.904C321.884 143.392 322.908 143.648 323.676 144.16Z" fill="white"/>
</g>
<defs>
<filter id="filter0_d_14_2" x="0.75" y="0.528015" width="343.566" height="209.328" filterUnits="userSpaceOnUse" color-interpolation-filters="sRGB">
<feFlood flood-opacity="0" result="BackgroundImageFix"/>
<feColorMatrix in="SourceAlpha" type="matrix" values="0 0 0 0 0 0 0 0 0 0 0 0 0 0 0 0 0 0 127 0" result="hardAlpha"/>
<feOffset/>
<feGaussianBlur stdDeviation="10"/>
<feComposite in2="hardAlpha" operator="out"/>
<feColorMatrix type="matrix" values="0 0 0 0 0.704388 0 0 0 0 0.0581357 0 0 0 0 0.901074 0 0 0 1 0"/>
<feBlend mode="normal" in2="BackgroundImageFix" result="effect1_dropShadow_14_2"/>
<feBlend mode="normal" in="SourceGraphic" in2="effect1_dropShadow_14_2" result="shape"/>
</filter>
</defs>
</svg>
